<?xml version="1.0" encoding="UTF-8"?>
<svg xmlns="http://www.w3.org/2000/svg" width="225.99" height="152.06" viewBox="0 0 350 235.499">
    <g transform="matrix(1.584,0,0,1.584,95.814,-7.919)" fill="currentColor">
        <g xmlns="http://www.w3.org/2000/svg">
            <path
                d="M89.7,63.9c-1.9-2.7-3.7-5.1-4.9-8c-0.4-1-1-2-1.7-2.8c-2.8-3.2-5.6-6.4-8.5-9.6c-5.1-5.7-11.2-10.3-17.8-14.1   c-6-3.5-12.1-6.9-18.2-10.2c-2.5-1.4-5.2-2.6-7.8-3.8c-1.3-0.6-2.8-0.8-4.1-1.3c-1.5-0.5-3.1-0.8-4.5-1.5c-3-1.6-6.3-2.2-9.4-3.1   c-1.2-0.4-2.4-0.6-3.1-1.8c-0.9-1.5-0.9-2,0.7-2.2c1.8-0.3,3.8-0.5,5.6-0.3c4,0.5,8,1.3,12,2c1,0.2,1.9,0.6,2.9,1   c10.9,4.7,21.2,10.4,31.2,16.7c6,3.8,11.3,8.4,15.7,13.9c1.8,2.3,3.7,4.5,5.6,6.7c1.7,1.9,3.1,4,4,6.4c1,2.5,2.2,4.9,3.3,7.3   C91.5,60.9,91,62.3,89.7,63.9z"></path>
            <path
                d="M5.8,21.8c2.3-1.4,4.5-1.8,7-1.4c4.7,0.8,9.3,2.2,13.7,4.1c5.9,2.5,11.8,4.7,17.3,8.1C55,39.6,64.3,48.5,72.2,58.9   c3.2,4.2,6.9,8.1,9.5,12.7c1.1,1.9,2,3.9,3,5.8c1,1.8,2.1,3.5,3,5.3c0.8,1.6,1.2,3.4,1.8,5.1c0.5,1.5,1,3,1.6,4.5   c0.2,0.6,0.6,1.2-0.1,1.8c-0.7,0.6-1.4,0.3-1.9-0.2c-0.4-0.4-0.9-0.8-1-1.3c-0.5-2.6-2.3-4.5-3.5-6.7c-0.3-0.6-0.8-1.1-1-1.7   c-2.3-5.5-5.9-10.3-9.6-14.9c-5.3-6.4-10.5-12.9-16.6-18.6C52.4,46,47.1,42,41.4,38.4c-4.4-2.7-8.9-5.2-13.5-7.5   c-4.1-2.1-8.4-3.9-12.7-5.6c-1.9-0.7-3.9-1-5.9-1.4C8,23.7,6.9,23.2,5.8,21.8z"></path>
            <path
                d="M72.7,93.2c-1.9-2.4-3.9-4.8-5.6-7.3c-2.2-3.3-4.3-6.4-7.4-9c-5.1-4.2-9.9-8.7-15-12.9c-5.1-4.2-10.8-7.6-16.7-10.4   c-2.7-1.3-5.4-2.7-8.3-3.8c-1.9-0.7-3.7-1.4-5.5-2.5c-1.5-0.9-3.4-1.2-5.1-1.7c-0.8-0.3-1.7-0.4-2.4-0.9c-0.4-0.3-0.7-1.1-0.7-1.7   c0-0.4,0.7-1,1.2-1c1.3-0.2,2.6-0.3,3.9-0.1c4.1,0.7,8.1,1.4,11.9,3.4c0.8,0.4,1.6,0.8,2.4,1c6.4,1.7,11.6,5.6,16.9,9.2   c3.9,2.7,7.3,6.2,11,9.1c3.8,3,7.2,6.3,10.1,10.1c1.9,2.6,3.7,5.4,5.4,8.1c1.2,2,2.3,4,3.4,6.1c0.6,1.3,1,2.7,1.1,4.1   C73,93,72.8,93.1,72.7,93.2z"></path>
            <path
                d="M93.4,37.1c-0.4,0.5-0.6,0.9-1,1.2c-1.3,1.3-2,1.2-3.1-0.3c-0.9-1.2-1.7-2.5-2.6-3.7C82.2,28.2,76,23.9,70,19.3   c-2.7-2-5.4-4.2-8.1-6.2c-0.7-0.5-1.4-1.2-2.2-1.4c-1.9-0.5-3.2-1.9-4.7-3c-0.4-0.3-0.7-0.8-0.9-1.2c-0.3-0.9,0-1.5,0.9-1.5   c1.3,0,2.6,0,3.9,0.4c3.6,1.1,6.8,3.3,9.8,5.5c1.5,1.1,2.8,2.3,4.3,3.3c4.1,2.7,7.7,5.9,11.4,9.1C87.5,26.9,91.5,32.7,93.4,37.1z"></path>
            <path
                d="M51.4,92.8c-1.3-2.1-2.5-3.5-3.2-5.2c-1.2-3-2.9-5.4-5.6-7.3c-2.2-1.6-4-3.5-6.3-5c-3-2-6.3-3.6-9.4-5.4   C21.8,67,16,65.7,10.4,64.2c-1-0.3-2.1-0.3-3.2-0.5c-0.3-0.1-0.9-0.6-0.8-0.8c0-0.4,0.4-1,0.7-1.2c0.8-0.3,1.7-0.5,2.5-0.5   c3.9,0.1,7.7,0.9,11.5,2c4.4,1.2,8.5,3.2,12.6,5.3c3.5,1.8,6.7,4.3,9.6,7.1c1.8,1.7,3.8,3.1,5,5.4c1.2,2.3,2.4,4.6,3.5,7   c0.4,0.8,0.5,1.8,0.5,2.7C52.3,91.2,51.8,91.8,51.4,92.8z"></path>
            <path
                d="M81.4,5c6.8,1.9,9.8,7.3,12.8,12.6c-2.7,3-3.3,3.1-5.6,0.1c-1.7-2.2-3.3-4.4-4.9-6.6c-0.2-0.3-0.5-0.5-0.8-0.7   C80.7,9,80.4,8.1,81.4,5z"></path>
            <path
                d="M27.8,94.9c-0.7-1.9-1.3-3.8-2.2-5.6c-1.4-3-3.4-5.4-6.4-6.7c-2.9-1.2-6-2.2-8.9-3.3c-1.3-0.5-2-1-2.8-2.3   c1.4-0.6,2.9-0.4,4.2,0c3.1,0.9,6.1,1.8,9,3.1c1.5,0.6,2.6,2,3.9,3.1c2.9,2.4,3.3,6.1,4.5,9.4c0.4,1.1-0.5,1.7-0.7,2.5   C28.2,95,28,94.9,27.8,94.9z"></path>
        </g>
    </g>
    <g transform="matrix(3.054,0,0,3.054,-2.565,144.614)" fill="currentColor">
        <path
            d="M9.74 20 l0 -5.36 l-5.8 0 l0 5.36 l-3.1 0 l0 -13.7 l3.1 0 l0 5.5 l5.8 0 l0 -5.5 l3.1 0 l0 13.7 l-3.1 0 z M20.38 20.24 c-3.84 0 -5.94 -2.28 -5.94 -5.68 l0 -8.26 l3.1 0 l0 7.84 c0 2.08 1.02 3.22 2.82 3.22 c1.78 0 2.78 -1.14 2.78 -3.22 l0 -7.84 l3.1 0 l0 8.26 c0 3.4 -2.08 5.68 -5.86 5.68 z M34.76 8.9 c-2.32 0 -4.08 1.86 -4.08 4.22 c0 2.42 1.76 4.26 4.18 4.26 c1.68 0 2.96 -0.88 3.74 -2.22 l2.42 1.68 c-1.32 2.16 -3.34 3.44 -6.12 3.44 c-4.22 0 -7.38 -3.14 -7.38 -7.16 c0 -3.98 3.14 -7.1 7.3 -7.1 c2.7 0 4.84 1.12 6.14 3.42 l-2.46 1.7 c-0.8 -1.32 -2 -2.24 -3.74 -2.24 z M45.32 12.68 l4.88 -6.38 l3.62 0 l-5.44 6.84 l5.6 6.86 l-4.02 0 l-4.64 -5.84 l0 5.84 l-3.1 0 l0 -13.7 l3.1 0 l0 6.38 z M54.760000000000005 20 l0 -13.7 l5.64 0 c3.06 0 4.42 1.7 4.42 3.72 c0 1.22 -0.58 2.2 -1.72 2.78 c1.72 0.52 2.64 1.68 2.64 3.28 c0 2.24 -1.58 3.92 -4.82 3.92 l-6.16 0 z M60.18 8.96 l-2.32 0 l0 2.8 l2.32 0 c1.06 0 1.6 -0.6 1.6 -1.42 c0 -0.8 -0.54 -1.38 -1.6 -1.38 z M60.74 14.379999999999999 l-2.88 0 l0 2.96 l2.9 0 c1.2 0 1.88 -0.6 1.88 -1.44 c0 -0.9 -0.68 -1.52 -1.9 -1.52 z M67 20 l0 -13.7 l10.02 0 l0 2.8 l-6.92 0 l0 2.58 l6.4 0 l0 2.72 l-6.4 0 l0 2.8 l6.94 0 l0 2.8 l-10.04 0 z M83.8 9.14 l-2.28 0 l0 3.66 l2.18 0 c1.34 0 2.16 -0.76 2.16 -1.82 s-0.68 -1.84 -2.06 -1.84 z M81.52 15.34 l0 4.66 l-3.1 0 l0 -13.7 l5.84 0 c2.92 0 4.72 1.88 4.72 4.56 c0 2.14 -1.42 3.92 -3.74 4.38 l4.36 4.76 l-4.04 0 z M96.1 9.14 l-2.28 0 l0 3.66 l2.18 0 c1.34 0 2.16 -0.76 2.16 -1.82 s-0.68 -1.84 -2.06 -1.84 z M93.82 15.34 l0 4.66 l-3.1 0 l0 -13.7 l5.84 0 c2.92 0 4.72 1.88 4.72 4.56 c0 2.14 -1.42 3.92 -3.74 4.38 l4.36 4.76 l-4.04 0 z M110.46 20 l-3.12 0 l0 -5.12 l-4.98 -8.58 l3.42 0 l3.16 5.76 l3.18 -5.76 l3.32 0 l-4.98 8.6 l0 5.1 z"></path>
    </g>
    <g transform="matrix(1.285,0,0,1.285,34.358,209.549)" fill="currentColor">
        <path
            d="M0.5 6 l1.96 0 l4.24 10.24 l4.26 -10.24 l1.96 0 l-6.1 14.2 l-0.22 0 z M17.667 20 l0 -14 l1.8 0 l0 14 l-1.8 0 z M24.614000000000004 18.54 c0.88 0.82 2.7 1.66 4.52 1.66 c2.8 0 4.58 -1.44 4.58 -3.7 c0 -1.84 -0.88 -2.92 -3.92 -4.64 c-2.32 -1.34 -2.88 -1.78 -2.88 -2.66 c0 -0.94 0.88 -1.68 2.36 -1.68 c0.86 0 2 0.38 2.66 0.8 l0.96 -1.44 c-0.94 -0.62 -2.42 -1.08 -3.6 -1.08 c-2.58 0 -4.3 1.48 -4.3 3.42 c0 1.72 0.86 2.58 3.5 4.02 c2.34 1.28 3.3 2.22 3.3 3.24 c0 1.2 -1.04 1.92 -2.66 1.92 c-1.4 0 -2.8 -0.66 -3.5 -1.3 z M38.861000000000004 20 l0 -14 l1.8 0 l0 14 l-1.8 0 z M53.208000000000006 20.2 c-4 0 -7.18 -3.2 -7.18 -7.2 s3.18 -7.2 7.18 -7.2 s7.18 3.2 7.18 7.2 s-3.18 7.2 -7.18 7.2 z M53.208000000000006 18.48 c3.04 0 5.32 -2.38 5.32 -5.48 s-2.28 -5.48 -5.32 -5.48 c-3.06 0 -5.34 2.38 -5.34 5.48 s2.28 5.48 5.34 5.48 z M75.375 6 l1.8 0 l0 14.2 l-0.22 0 l-9.4 -9.98 l0 9.78 l-1.78 0 l0 -14.2 l0.2 0 l9.4 9.98 l0 -9.78 z M84.102 20.1 c-0.7 0 -1.2 -0.5 -1.2 -1.18 c0 -0.66 0.5 -1.16 1.2 -1.16 c0.64 0 1.14 0.5 1.14 1.16 c0 0.68 -0.5 1.18 -1.14 1.18 z M108.776 18.28 l0.12 1.72 l-8.52 0 l0 -14 l8.12 0 l0.14 1.72 l-6.46 0 l0 3.42 l4.38 0 l0 1.72 l-4.38 0 l0 5.42 l6.6 0 z M115.843 18.28 l5.92 0 l-0.12 1.72 l-7.6 0 l0 -14 l1.8 0 l0 12.28 z M134.89000000000001 18.28 l0.12 1.72 l-8.52 0 l0 -14 l8.12 0 l0.14 1.72 l-6.46 0 l0 3.42 l4.38 0 l0 1.72 l-4.38 0 l0 5.42 l6.6 0 z M138.957 6 l1.96 0 l4.24 10.24 l4.26 -10.24 l1.96 0 l-6.1 14.2 l-0.22 0 z M165.324 20 l-1.22 -2.84 l-6.24 0 l-1.22 2.84 l-1.92 0 l6.16 -14.2 l0.2 0 l6.16 14.2 l-1.92 0 z M158.584 15.48 l4.8 0 l-2.4 -5.54 z M180.531 7.720000000000001 l-4.08 0 l0 12.28 l-1.8 0 l0 -12.28 l-4.1 0 l0.12 -1.72 l9.74 0 z M193.65800000000002 18.28 l0.12 1.72 l-8.52 0 l0 -14 l8.12 0 l0.14 1.72 l-6.46 0 l0 3.42 l4.38 0 l0 1.72 l-4.38 0 l0 5.42 l6.6 0 z M203.72500000000002 6 c4.64 0 7.2 2.84 7.2 7 s-2.56 7 -7.2 7 l-4.8 0 l0 -14 l4.8 0 z M203.82500000000002 18.28 c3.4 0 5.3 -2.12 5.3 -5.28 c0 -3.18 -1.9 -5.28 -5.3 -5.28 l-3.1 0 l0 10.56 l3.1 0 z M217.312 20.1 c-0.7 0 -1.2 -0.5 -1.2 -1.18 c0 -0.66 0.5 -1.16 1.2 -1.16 c0.64 0 1.14 0.5 1.14 1.16 c0 0.68 -0.5 1.18 -1.14 1.18 z"></path>
    </g>
</svg>